<?xml version="1.0" encoding="utf-8"?>
<!-- Generator: Adobe Illustrator 15.1.0, SVG Export Plug-In . SVG Version: 6.00 Build 0)  -->
<!DOCTYPE svg PUBLIC "-//W3C//DTD SVG 1.1//EN" "http://www.w3.org/Graphics/SVG/1.1/DTD/svg11.dtd">
<svg version="1.1" xmlns="http://www.w3.org/2000/svg" xmlns:xlink="http://www.w3.org/1999/xlink" x="0px" y="0px"
	 width="698.667px" height="194.123px" viewBox="0 0 698.667 194.123" enable-background="new 0 0 698.667 194.123"
	 xml:space="preserve">
<g id="logo">
	<g>
		<g>
			<path fill="#379784" d="M176.422,142.807h-14.617V37.967h22.538l30.386,81.078l30.386-81.078h22.25v104.84h-14.257l1.008-91.015
				l-34.059,91.015h-10.801l-33.915-91.015L176.422,142.807z"/>
			<path fill="#379784" d="M280.614,103.276c0-5.617,0.947-10.861,2.844-15.734c1.896-4.871,4.691-9.252,8.389-13.141
				c3.984-4.271,8.472-7.561,13.465-9.865c4.992-2.304,10.176-3.455,15.553-3.455c5.76,0,11.1,1.032,16.021,3.096
				c4.92,2.064,9.372,5.112,13.357,9.145c3.889,3.985,6.877,8.473,8.965,13.465c2.088,4.994,3.132,10.152,3.132,15.481
				c0,5.425-0.972,10.705-2.916,15.841c-1.944,5.138-4.669,9.625-8.173,13.465c-4.032,4.418-8.558,7.766-13.573,10.045
				c-5.017,2.279-10.357,3.42-16.021,3.42c-5.809,0-11.161-1.043-16.057-3.131c-4.896-2.089-9.289-5.173-13.177-9.254
				c-3.697-3.888-6.588-8.412-8.676-13.572C281.658,113.921,280.614,108.652,280.614,103.276z M295.375,103.132
				c0,7.92,2.508,14.521,7.524,19.801c5.016,5.281,11.269,7.921,18.757,7.921c7.345,0,13.501-2.651,18.469-7.956
				c4.969-5.305,7.453-11.941,7.453-19.91c0-8.016-2.484-14.641-7.453-19.873c-4.968-5.232-11.173-7.849-18.613-7.849
				c-7.393,0-13.598,2.653-18.613,7.956C297.883,88.526,295.375,95.163,295.375,103.132z"/>
			<path fill="#379784" d="M388.838,142.807h-14.258V63.601h13.682v9.001c2.976-3.552,6.252-6.157,9.828-7.813
				c3.576-1.655,7.669-2.483,12.277-2.483c10.369,0,18.325,3.049,23.87,9.145c5.544,6.097,8.316,14.833,8.316,26.21v45.147h-14.329
				v-42.052c0-8.399-1.561-14.628-4.681-18.686c-3.121-4.055-7.945-6.084-14.473-6.084c-7.105,0-12.254,2.389-15.445,7.164
				c-3.193,4.777-4.788,12.662-4.788,23.654V142.807z"/>
			<path fill="#379784" d="M469.844,108.46c1.199,6.625,4.188,11.988,8.964,16.094c4.776,4.104,10.452,6.156,17.029,6.156
				c4.704,0,8.988-1.127,12.854-3.385c3.863-2.256,6.948-5.447,9.253-9.576H534c-3.648,8.784-8.748,15.506-15.301,20.161
				c-6.553,4.657-14.174,6.985-22.862,6.985c-5.856,0-11.209-1.033-16.057-3.098c-4.85-2.063-9.241-5.158-13.177-9.288
				c-3.697-3.888-6.589-8.412-8.677-13.573c-2.089-5.159-3.133-10.428-3.133-15.805c0-5.568,0.947-10.776,2.845-15.625
				c1.896-4.848,4.691-9.264,8.389-13.25c3.936-4.32,8.376-7.571,13.32-9.756c4.944-2.184,10.345-3.276,16.202-3.276
				c6.959,0,13.429,1.62,19.405,4.86s10.908,7.766,14.797,13.572c2.304,3.602,4.008,7.55,5.112,11.846
				c1.104,4.297,1.656,9.205,1.656,14.725v2.232H469.844z M520.896,95.644c-1.776-6.528-4.85-11.581-9.217-15.158
				c-4.369-3.574-9.602-5.363-15.697-5.363c-6.241,0-11.653,1.836-16.237,5.508c-4.585,3.672-7.74,8.677-9.469,15.014H520.896z"/>
			<path fill="#379784" d="M553.73,142.807V76.562h-11.232V63.601h11.232V37.967h14.185v25.634h11.233v12.961h-11.233v66.245H553.73
				z"/>
			<path fill="#379784" d="M653.458,142.807v-9.721c-3.648,3.792-7.717,6.661-12.205,8.604c-4.489,1.944-9.277,2.916-14.365,2.916
				c-11.905,0-21.794-3.971-29.666-11.916c-7.873-7.945-11.809-17.895-11.809-29.847c0-5.568,0.983-10.849,2.952-15.841
				c1.968-4.992,4.775-9.385,8.425-13.178c3.983-4.176,8.34-7.26,13.068-9.252c4.728-1.992,10.117-2.988,16.165-2.988
				c5.425,0,10.416,0.961,14.978,2.88c4.56,1.921,8.713,4.824,12.457,8.712v-9.576h14.401v79.206H653.458z M600.173,102.7
				c0,8.017,2.652,14.736,7.957,20.161c5.304,5.425,11.796,8.136,19.478,8.136c7.008,0,13.188-2.723,18.541-8.172
				c5.352-5.447,8.028-11.82,8.028-19.117c0-7.777-2.652-14.438-7.956-19.982c-5.305-5.544-11.605-8.316-18.901-8.316
				c-7.489,0-13.886,2.641-19.189,7.921C602.826,88.611,600.173,95.067,600.173,102.7z"/>
		</g>
		<g>
			<path fill="#666666" d="M101.608,135.526v-3.344l-2.329-0.584c-0.483-0.122-0.862-0.494-0.991-0.976
				c0-0.001-0.001-0.005-0.002-0.007c-0.126-0.473,0.014-0.979,0.366-1.32l1.733-1.676l-1.672-2.898l-2.297,0.658
				c-0.486,0.137-1.012,0.001-1.369-0.354c0-0.002-0.002-0.002-0.002-0.002c-0.342-0.342-0.472-0.844-0.338-1.309l0.667-2.334
				l-2.897-1.673l-1.669,1.726c-0.346,0.355-0.859,0.5-1.338,0.369c-0.003,0-0.005,0-0.007,0c-0.476-0.127-0.845-0.502-0.963-0.98
				l-0.585-2.338h-3.346l-0.583,2.329c-0.122,0.483-0.496,0.862-0.975,0.993c-0.003,0-0.005,0-0.008,0
				c-0.473,0.129-0.979-0.014-1.319-0.365l-1.677-1.733l-2.897,1.673l0.656,2.297c0.14,0.487,0.004,1.012-0.353,1.37h0
				c-0.342,0.343-0.843,0.475-1.308,0.339l-2.334-0.666l-1.673,2.898l1.726,1.668c0.356,0.345,0.5,0.857,0.372,1.336
				c-0.001,0.004-0.002,0.006-0.002,0.01c-0.126,0.474-0.5,0.843-0.978,0.963l-2.34,0.586v3.344l2.329,0.582
				c0.483,0.121,0.863,0.496,0.991,0.977c0,0.003,0.001,0.006,0.002,0.008c0.127,0.474-0.013,0.977-0.365,1.319l-1.734,1.677
				l1.673,2.898l2.297-0.658c0.486-0.137,1.012-0.004,1.369,0.354c0,0,0,0.001,0.001,0.001c0.342,0.342,0.472,0.844,0.34,1.308
				l-0.668,2.336L80.005,148l1.668-1.728c0.345-0.356,0.858-0.498,1.338-0.369c0.001,0,0.005,0,0.007,0
				c0.476,0.127,0.843,0.503,0.963,0.979l0.585,2.342h3.346l0.582-2.331c0.121-0.48,0.494-0.862,0.976-0.989
				c0.002-0.003,0.004-0.003,0.007-0.003c0.473-0.128,0.979,0.012,1.32,0.365L92.476,148l2.897-1.673l-0.658-2.299
				c-0.138-0.485-0.002-1.011,0.354-1.369c0,0,0,0,0.001,0c0.341-0.345,0.842-0.475,1.307-0.342l2.335,0.67l1.672-2.898l-1.724-1.67
				c-0.357-0.342-0.5-0.856-0.372-1.338c0,0,0.001-0.004,0.001-0.006c0.127-0.475,0.501-0.844,0.979-0.963L101.608,135.526z"/>
			<path fill="#666666" d="M145.826,116.987v-4.965l-3.456-0.865c-0.715-0.18-1.281-0.732-1.471-1.447
				c0-0.004-0.002-0.008-0.002-0.012c-0.189-0.703,0.021-1.453,0.542-1.957l2.574-2.49l-2.482-4.299l-3.41,0.973
				c-0.723,0.207-1.501,0.006-2.032-0.523c0-0.001-0.001-0.001-0.001-0.001c-0.509-0.509-0.702-1.251-0.505-1.942l0.99-3.465
				l-4.3-2.482l-2.478,2.563c-0.512,0.529-1.272,0.742-1.985,0.551c-0.005,0-0.008-0.002-0.01-0.003
				c-0.704-0.189-1.251-0.744-1.428-1.452l-0.868-3.471h-4.966l-0.865,3.455c-0.18,0.715-0.734,1.281-1.447,1.473
				c-0.004,0-0.008,0-0.011,0.002c-0.702,0.188-1.452-0.02-1.958-0.544l-2.49-2.573l-4.3,2.482l0.974,3.41
				c0.207,0.721,0.005,1.501-0.523,2.034c0,0-0.001,0-0.002,0c-0.508,0.509-1.25,0.7-1.941,0.505l-3.464-0.99l-2.481,4.299
				l2.561,2.476c0.529,0.513,0.741,1.277,0.551,1.987c-0.001,0.004-0.003,0.008-0.003,0.013c-0.187,0.702-0.744,1.251-1.45,1.426
				l-3.474,0.87v4.965l3.456,0.865c0.717,0.18,1.282,0.734,1.472,1.445c0,0.006,0.003,0.008,0.003,0.012
				c0.189,0.703-0.019,1.454-0.543,1.962l-2.572,2.487l2.481,4.301l3.409-0.976c0.723-0.206,1.501-0.005,2.033,0.523
				c0.001,0.003,0.001,0.003,0.001,0.003c0.509,0.507,0.7,1.252,0.503,1.941l-0.99,3.463l4.3,2.484l2.477-2.561
				c0.511-0.53,1.273-0.741,1.985-0.551c0.005,0,0.008,0.002,0.012,0.002c0.705,0.186,1.251,0.744,1.429,1.451l0.869,3.472h4.966
				l0.865-3.456c0.179-0.715,0.732-1.281,1.447-1.471c0.003-0.001,0.007-0.001,0.01-0.004c0.702-0.188,1.453,0.021,1.958,0.543
				l2.489,2.574l4.3-2.484l-0.975-3.41c-0.206-0.719-0.005-1.5,0.525-2.031c0.001,0,0.001,0,0.001,0
				c0.507-0.51,1.251-0.702,1.941-0.505l3.464,0.991l2.482-4.301l-2.561-2.479c-0.53-0.51-0.742-1.271-0.551-1.985
				c0-0.004,0.002-0.008,0.002-0.011c0.188-0.705,0.744-1.251,1.451-1.428L145.826,116.987z"/>
			<circle fill="#FFFFFF" cx="123.019" cy="114.506" r="8.31"/>
			<path fill="#379784" d="M107.226,82.662v-9.205l-6.408-1.603c-1.326-0.332-2.374-1.359-2.726-2.683
				c-0.001-0.007-0.005-0.013-0.005-0.02c-0.35-1.302,0.036-2.695,1.005-3.631l4.769-4.614l-4.604-7.971l-6.318,1.807
				c-1.337,0.383-2.782,0.01-3.766-0.973c-0.001-0.001-0.001-0.001-0.001-0.002c-0.944-0.939-1.302-2.318-0.935-3.598l1.834-6.422
				l-7.972-4.604l-4.59,4.747c-0.95,0.981-2.361,1.376-3.681,1.022c-0.007,0-0.013-0.004-0.019-0.008
				c-1.306-0.346-2.32-1.377-2.648-2.688l-1.609-6.436h-9.205l-1.604,6.404c-0.332,1.328-1.362,2.375-2.683,2.728
				c-0.007,0.003-0.014,0.004-0.021,0.006c-1.302,0.351-2.692-0.036-3.63-1.007l-4.614-4.77l-7.971,4.604l1.807,6.32
				c0.382,1.334,0.01,2.78-0.972,3.768c0,0-0.001,0-0.001,0c-0.942,0.943-2.319,1.301-3.599,0.936l-6.421-1.836l-4.602,7.971
				l4.747,4.59c0.98,0.951,1.373,2.363,1.021,3.683c-0.003,0.007-0.007,0.015-0.007,0.021c-0.347,1.304-1.377,2.317-2.689,2.647
				l-6.437,1.608v9.205l6.407,1.604c1.328,0.329,2.375,1.361,2.728,2.681c0.002,0.009,0.004,0.016,0.005,0.021
				c0.35,1.303-0.036,2.692-1.006,3.631l-4.769,4.614l4.602,7.972l6.319-1.809c1.337-0.381,2.783-0.012,3.767,0.972
				c0,0.001,0.002,0.004,0.004,0.004c0.941,0.938,1.298,2.317,0.933,3.597l-1.835,6.424l7.97,4.602l4.591-4.748
				c0.95-0.98,2.362-1.373,3.681-1.02c0.007,0,0.015,0.003,0.021,0.003c1.305,0.348,2.319,1.38,2.647,2.69l1.611,6.438h9.205
				l1.602-6.407c0.332-1.325,1.36-2.374,2.682-2.726c0.007-0.003,0.014-0.006,0.021-0.007c1.303-0.349,2.692,0.037,3.63,1.006
				l4.612,4.771l7.972-4.602l-1.808-6.322c-0.382-1.336-0.008-2.781,0.974-3.764c0.001-0.003,0.001-0.003,0.001-0.004
				c0.941-0.945,2.32-1.301,3.598-0.936l6.421,1.838l4.604-7.972l-4.747-4.593c-0.98-0.949-1.373-2.361-1.02-3.68
				c0.001-0.008,0.004-0.013,0.005-0.021c0.348-1.305,1.377-2.319,2.688-2.646L107.226,82.662z"/>
			<circle fill="#FFFFFF" cx="86.24" cy="133.855" r="6.032"/>
			<path fill="#FFFFFF" stroke="#FFFFFF" stroke-width="2" d="M88.097,80.64H66.678l9.093-25.447
				c0.233-0.648-0.212-1.404-0.994-1.683c-0.781-0.277-1.602,0.021-1.835,0.674l-9.889,27.675c-0.216,0.605,0.159,1.295,0.841,1.613
				c0.139,0.105,0.295,0.174,0.462,0.174h0.273h0.001h23.465c0.557,0,1.01-0.673,1.01-1.502S88.654,80.64,88.097,80.64z"/>
		</g>
	</g>
</g>
<g id="Calque_2" display="none">
	<g display="inline">
		<g>
			<path fill="#379784" d="M193.453,99.466h-11.995V13.437h18.494l24.935,66.531l24.934-66.531h18.258v86.029h-11.699l0.827-74.685
				l-27.948,74.685h-8.863l-27.829-74.685L193.453,99.466z"/>
			<path fill="#379784" d="M278.95,67.027c0-4.608,0.777-8.911,2.334-12.91c1.556-3.997,3.85-7.593,6.884-10.783
				c3.269-3.505,6.952-6.204,11.049-8.095c4.096-1.891,8.351-2.836,12.763-2.836c4.727,0,9.108,0.848,13.146,2.541
				c4.037,1.693,7.69,4.194,10.96,7.504c3.191,3.27,5.643,6.952,7.356,11.049c1.713,4.097,2.57,8.331,2.57,12.703
				c0,4.452-0.797,8.785-2.393,12.999c-1.596,4.216-3.832,7.898-6.707,11.049c-3.309,3.625-7.022,6.372-11.138,8.243
				c-4.117,1.87-8.499,2.807-13.146,2.807c-4.767,0-9.158-0.857-13.176-2.57c-4.018-1.714-7.622-4.244-10.813-7.593
				c-3.034-3.19-5.407-6.903-7.12-11.138S278.95,71.439,278.95,67.027z M291.063,66.909c0,6.5,2.058,11.916,6.174,16.249
				c4.116,4.333,9.247,6.499,15.392,6.499c6.027,0,11.079-2.176,15.155-6.528c4.077-4.353,6.116-9.799,6.116-16.338
				c0-6.577-2.039-12.014-6.116-16.308c-4.077-4.293-9.168-6.44-15.273-6.44c-6.066,0-11.158,2.177-15.274,6.529
				C293.121,54.925,291.063,60.371,291.063,66.909z"/>
			<path fill="#379784" d="M367.756,99.466h-11.699V34.472h11.226v7.386c2.442-2.915,5.13-5.052,8.065-6.411
				c2.934-1.359,6.292-2.038,10.074-2.038c8.509,0,15.038,2.502,19.588,7.504c4.549,5.003,6.824,12.171,6.824,21.507v37.047h-11.759
				V64.96c0-6.893-1.28-12.004-3.84-15.333c-2.562-3.328-6.521-4.993-11.876-4.993c-5.831,0-10.055,1.96-12.674,5.879
				c-2.62,3.921-3.929,10.391-3.929,19.41V99.466z"/>
			<path fill="#379784" d="M434.228,71.282c0.984,5.436,3.437,9.838,7.356,13.205c3.919,3.368,8.576,5.052,13.974,5.052
				c3.86,0,7.376-0.925,10.547-2.776c3.17-1.852,5.702-4.471,7.593-7.858h13.176c-2.994,7.208-7.179,12.724-12.556,16.544
				c-5.377,3.821-11.631,5.731-18.76,5.731c-4.807,0-9.198-0.848-13.176-2.541c-3.979-1.693-7.584-4.234-10.813-7.622
				c-3.033-3.19-5.406-6.903-7.119-11.138c-1.714-4.234-2.57-8.558-2.57-12.97c0-4.568,0.777-8.842,2.334-12.821
				c1.556-3.979,3.85-7.602,6.883-10.872c3.229-3.545,6.874-6.213,10.932-8.006c4.057-1.792,8.487-2.688,13.294-2.688
				c5.711,0,11.02,1.329,15.924,3.988s8.951,6.372,12.142,11.138c1.891,2.954,3.289,6.194,4.195,9.72s1.359,7.554,1.359,12.083
				v1.832H434.228z M476.12,60.765c-1.457-5.356-3.979-9.503-7.563-12.438c-3.585-2.935-7.879-4.402-12.881-4.402
				c-5.121,0-9.563,1.507-13.324,4.521s-6.352,7.12-7.77,12.319H476.12z"/>
			<path fill="#379784" d="M503.063,99.466V45.106h-9.218V34.472h9.218V13.437h11.64v21.035h9.218v10.635h-9.218v54.359H503.063z"/>
			<path fill="#379784" d="M536.329,99.466V45.106h-9.218V34.472h9.218V13.437h11.64v21.035h9.218v10.635h-9.218v54.359H536.329z"/>
			<path fill="#379784" d="M618.163,99.466v-7.977c-2.994,3.112-6.332,5.466-10.015,7.061c-3.684,1.596-7.613,2.394-11.788,2.394
				c-9.77,0-17.884-3.26-24.344-9.779c-6.46-6.519-9.689-14.683-9.689-24.491c0-4.568,0.807-8.901,2.422-12.999
				c1.615-4.096,3.92-7.7,6.913-10.813c3.27-3.427,6.844-5.957,10.725-7.593c3.879-1.634,8.302-2.451,13.265-2.451
				c4.451,0,8.547,0.788,12.29,2.363c3.741,1.575,7.149,3.958,10.222,7.149v-7.858h11.817v64.994H618.163z M574.439,66.555
				c0,6.579,2.176,12.094,6.529,16.544c4.352,4.452,9.68,6.677,15.982,6.677c5.751,0,10.822-2.234,15.215-6.706
				c4.392-4.47,6.588-9.699,6.588-15.688c0-6.381-2.177-11.847-6.529-16.396c-4.353-4.549-9.522-6.824-15.51-6.824
				c-6.145,0-11.395,2.167-15.746,6.5C576.615,54.994,574.439,60.292,574.439,66.555z"/>
		</g>
		<g>
			<path fill="#C7E5DF" d="M140.635,100.306c0,0,2.765-25.297-21.239-36.851c-24.005,11.554-21.241,36.851-21.241,36.851H140.635z"
				/>
			<path fill="#C7E5DF" d="M95.896,15.842c0,0,0.209,30.036,23.376,36.498c24.594-9.972,23.619-36.498,23.619-36.498H95.896z"/>
			<g>
				<path fill="#379784" d="M149.817,105.286c0,1.648-1.338,2.988-2.988,2.988H93.839c-1.65,0-2.989-1.34-2.989-2.988l0,0
					c0-1.652,1.338-2.988,2.989-2.988h52.989C148.479,102.298,149.817,103.634,149.817,105.286L149.817,105.286z"/>
				<path fill="#379784" d="M149.817,10.661c0,1.65-1.338,2.989-2.988,2.989H93.839c-1.65,0-2.989-1.339-2.989-2.989l0,0
					c0-1.653,1.338-2.988,2.989-2.988h52.989C148.479,7.673,149.817,9.008,149.817,10.661L149.817,10.661z"/>
				<path fill="#379784" d="M140.635,100.306c0,0,2.765-24.204-21.239-35.261c-24.005,11.057-21.241,35.261-21.241,35.261
					c-2.258-30.28,12.75-38.646,14.078-42.232c1.328-3.585-1.461-5.845-1.461-5.845C94.835,40.409,95.896,15.842,95.896,15.842
					s2.259,24.035,17.93,32.402c0,0,1.502,1.09,1.789-1.404c0.192-1.685-2.001-11.341,3.778-11.341c5.783,0,3.586,9.656,3.78,11.341
					c0.287,2.494,1.789,1.404,1.789,1.404c15.67-8.367,17.928-32.402,17.928-32.402s1.063,24.567-14.874,36.387
					c0,0-2.791,2.26-1.462,5.845C127.885,61.659,142.893,70.025,140.635,100.306z"/>
			</g>
		</g>
	</g>
	<g display="inline">
		<g>
			<path fill="#379784" d="M193.453-49.409h-11.995v-86.029h18.494l24.935,66.531l24.934-66.531h18.258v86.029h-11.699l0.827-74.685
				l-27.948,74.685h-8.863l-27.829-74.685L193.453-49.409z"/>
			<path fill="#379784" d="M278.95-81.848c0-4.608,0.777-8.911,2.334-12.91c1.556-3.997,3.85-7.593,6.884-10.783
				c3.269-3.505,6.952-6.204,11.049-8.095c4.096-1.891,8.351-2.836,12.763-2.836c4.727,0,9.108,0.848,13.146,2.541
				c4.037,1.693,7.69,4.194,10.96,7.504c3.191,3.27,5.643,6.952,7.356,11.049c1.713,4.097,2.57,8.331,2.57,12.703
				c0,4.452-0.797,8.785-2.393,12.999c-1.596,4.216-3.832,7.898-6.707,11.049c-3.309,3.625-7.022,6.372-11.138,8.243
				c-4.117,1.87-8.499,2.807-13.146,2.807c-4.767,0-9.158-0.857-13.176-2.57c-4.018-1.714-7.622-4.244-10.813-7.593
				c-3.034-3.19-5.407-6.903-7.12-11.138S278.95-77.436,278.95-81.848z M291.063-81.966c0,6.5,2.058,11.916,6.174,16.249
				c4.116,4.333,9.247,6.499,15.392,6.499c6.027,0,11.079-2.176,15.155-6.528c4.077-4.353,6.116-9.799,6.116-16.338
				c0-6.577-2.039-12.014-6.116-16.308c-4.077-4.293-9.168-6.44-15.273-6.44c-6.066,0-11.158,2.177-15.274,6.529
				C293.121-93.95,291.063-88.504,291.063-81.966z"/>
			<path fill="#379784" d="M367.756-49.409h-11.699v-64.994h11.226v7.386c2.442-2.915,5.13-5.052,8.065-6.411
				c2.934-1.359,6.292-2.038,10.074-2.038c8.509,0,15.038,2.502,19.588,7.504c4.549,5.003,6.824,12.171,6.824,21.507v37.047h-11.759
				v-34.506c0-6.893-1.28-12.004-3.84-15.333c-2.562-3.328-6.521-4.993-11.876-4.993c-5.831,0-10.055,1.96-12.674,5.879
				c-2.62,3.921-3.929,10.391-3.929,19.41V-49.409z"/>
			<path fill="#379784" d="M434.228-77.593c0.984,5.436,3.437,9.838,7.356,13.205c3.919,3.368,8.576,5.052,13.974,5.052
				c3.86,0,7.376-0.925,10.547-2.776c3.17-1.852,5.702-4.471,7.593-7.858h13.176c-2.994,7.208-7.179,12.724-12.556,16.544
				c-5.377,3.821-11.631,5.731-18.76,5.731c-4.807,0-9.198-0.848-13.176-2.541c-3.979-1.693-7.584-4.234-10.813-7.622
				c-3.033-3.19-5.406-6.903-7.119-11.138c-1.714-4.234-2.57-8.558-2.57-12.97c0-4.568,0.777-8.842,2.334-12.821
				c1.556-3.979,3.85-7.602,6.883-10.872c3.229-3.545,6.874-6.213,10.932-8.006c4.057-1.792,8.487-2.688,13.294-2.688
				c5.711,0,11.02,1.329,15.924,3.988s8.951,6.372,12.142,11.138c1.891,2.954,3.289,6.194,4.195,9.72s1.359,7.554,1.359,12.083
				v1.832H434.228z M476.12-88.11c-1.457-5.356-3.979-9.503-7.563-12.438c-3.585-2.935-7.879-4.402-12.881-4.402
				c-5.121,0-9.563,1.507-13.324,4.521s-6.352,7.12-7.77,12.319H476.12z"/>
			<path fill="#379784" d="M503.063-49.409v-54.359h-9.218v-10.635h9.218v-21.035h11.64v21.035h9.218v10.635h-9.218v54.359H503.063z
				"/>
			<path fill="#379784" d="M536.329-49.409v-54.359h-9.218v-10.635h9.218v-21.035h11.64v21.035h9.218v10.635h-9.218v54.359H536.329z
				"/>
			<path fill="#379784" d="M618.163-49.409v-7.977c-2.994,3.112-6.332,5.466-10.015,7.061c-3.684,1.596-7.613,2.394-11.788,2.394
				c-9.77,0-17.884-3.26-24.344-9.779c-6.46-6.519-9.689-14.683-9.689-24.491c0-4.568,0.807-8.901,2.422-12.999
				c1.615-4.096,3.92-7.7,6.913-10.813c3.27-3.427,6.844-5.957,10.725-7.593c3.879-1.634,8.302-2.451,13.265-2.451
				c4.451,0,8.547,0.788,12.29,2.363c3.741,1.575,7.149,3.958,10.222,7.149v-7.858h11.817v64.994H618.163z M574.439-82.32
				c0,6.579,2.176,12.094,6.529,16.544c4.352,4.452,9.68,6.677,15.982,6.677c5.751,0,10.822-2.234,15.215-6.706
				c4.392-4.47,6.588-9.699,6.588-15.688c0-6.381-2.177-11.847-6.529-16.396c-4.353-4.549-9.522-6.824-15.51-6.824
				c-6.145,0-11.395,2.167-15.746,6.5C576.615-93.881,574.439-88.583,574.439-82.32z"/>
		</g>
		<path fill="#379784" d="M139.671-116.369l22.806-26.425l-7.801-7.262l-43.303,52.717L98.57-110.142
			c1.483-1.094,3.103-2.048,4.859-2.823c5.499-2.43,11.394-2.764,16.79-1.348l4.826-11.137c-8.409-2.654-17.783-2.375-26.484,1.469
			c-6.222,2.752-11.908,7.506-15.665,12.623l7.744,6.85l21.003,20.618l20.352-23.581c2.086,2.131,3.84,4.658,5.117,7.547
			c5.701,12.902-0.139,27.984-13.042,33.684c-7.777,3.437-16.3,2.707-23.132-1.261l5.511-8.057L84.38-71.417l4.191,22.007
			l5.562-8.135c10.162,6.215,23.081,7.494,34.802,2.316c18.987-8.388,27.579-30.578,19.188-49.561
			C145.961-109.684,143.145-113.375,139.671-116.369z"/>
	</g>
</g>
</svg>
